<svg xmlns="http://www.w3.org/2000/svg" width="164" height="165" viewBox="0 0 164 165">
    <g fill="none" fill-rule="evenodd" transform="translate(6 6)">
        <path stroke="#FFF" stroke-dasharray="0.8791051805019379,2.344270706176758" stroke-width="11.431" d="M75.941 152.737c41.942 0 75.942-34.159 75.942-76.296 0-42.136-34-76.295-75.942-76.295C34.001.146 0 34.305 0 76.441c0 42.137 34 76.296 75.941 76.296z"/>
        <g fill="#FFF" fill-rule="nonzero" stroke="#FFF" stroke-width=".75">
            <path d="M60.555 21.473l.147.468-4.924 1.667-2.404-7.138 4.778-1.609.146.468-4.25 1.434.938 2.808 3.81-1.287.147.468-3.81 1.287.996 2.926zM62.812 21.239c-.528-.088-.967-.234-1.29-.468l.147-.44c.322.206.703.381 1.202.44.469.087.967.058 1.436-.03.703-.146 1.202-.38 1.495-.731.293-.351.41-.731.322-1.141a1.16 1.16 0 0 0-.44-.731 1.848 1.848 0 0 0-.79-.293c-.294-.058-.704-.088-1.203-.088-.557-.029-1.025-.058-1.377-.117a2.364 2.364 0 0 1-.967-.41c-.294-.204-.47-.555-.557-.994a1.637 1.637 0 0 1 .088-1.053c.117-.351.351-.644.732-.907.352-.263.821-.439 1.407-.585.41-.088.82-.117 1.231-.088.41.03.792.117 1.114.264l-.117.468a3.464 3.464 0 0 0-1.085-.264c-.38-.029-.732 0-1.084.059-.674.146-1.173.38-1.466.731a1.314 1.314 0 0 0-.293 1.17c.059.322.235.585.44.732.234.146.498.263.791.292.293.059.704.088 1.231.088.557.03 1.026.059 1.378.117.352.059.674.205.938.41.293.204.469.526.557.965.088.351.058.702-.088 1.053-.117.322-.381.644-.733.907s-.85.439-1.407.585a5.006 5.006 0 0 1-1.612.059zM69.319 13.223l-2.697.292-.058-.497 5.95-.614.058.497-2.696.293.733 6.991-.557.059zM81.483 19.542l-.03.497-5.187-.234.029-.38 3.312-3.013c.44-.41.733-.732.88-1.024.146-.293.234-.585.263-.907.03-.468-.117-.848-.44-1.141-.322-.293-.791-.439-1.407-.468-.469-.03-.879.03-1.26.175a2.185 2.185 0 0 0-.938.615l-.38-.351a2.591 2.591 0 0 1 1.113-.702c.44-.147.967-.234 1.524-.205.733.03 1.319.234 1.73.614.41.38.615.878.586 1.492-.03.38-.118.76-.294 1.083-.175.35-.527.73-1.025 1.17l-2.902 2.633 4.426.146zM83.71 19.922c-.41-.38-.674-.877-.82-1.463-.147-.614-.176-1.287-.059-2.047.117-.76.352-1.405.674-1.931.323-.527.733-.907 1.231-1.141.498-.234 1.026-.322 1.583-.234.557.088 1.055.322 1.436.702.41.38.674.878.82 1.463.147.614.177 1.287.06 2.048-.118.76-.352 1.404-.675 1.93-.322.527-.732.907-1.23 1.141-.499.234-1.027.322-1.583.234a3.153 3.153 0 0 1-1.437-.702zm2.843 0c.41-.205.733-.526.997-.994a4.606 4.606 0 0 0 .557-1.726 4.66 4.66 0 0 0-.03-1.814 2.494 2.494 0 0 0-.674-1.258c-.322-.322-.703-.497-1.172-.585-.469-.059-.909 0-1.29.205-.41.204-.732.526-.996.994a4.606 4.606 0 0 0-.557 1.726 4.66 4.66 0 0 0 .03 1.814c.116.527.351.936.673 1.258.323.322.704.497 1.173.585.44.058.88-.03 1.29-.205zM92.738 14.422l-1.817 7.314-.528-.146 1.7-6.817-1.788-.438.117-.468zM98.072 19.6c.294.293.499.644.587 1.024.088.38.058.79-.088 1.2a2.15 2.15 0 0 1-.704 1.024 2.12 2.12 0 0 1-1.114.468c-.41.058-.85 0-1.319-.147-.908-.321-1.524-.877-1.787-1.667-.264-.79-.235-1.755.175-2.867.264-.79.645-1.404 1.085-1.872.44-.468.967-.732 1.524-.849.557-.117 1.172-.058 1.817.147.674.234 1.173.526 1.495.936l-.352.35c-.263-.321-.703-.614-1.29-.818-.82-.293-1.553-.234-2.227.117-.645.38-1.143 1.053-1.495 2.077-.117.322-.176.614-.234.877.293-.41.703-.672 1.202-.79.498-.117 1.025-.087 1.582.118.44.146.85.38 1.143.672zm-.967 3.13c.44-.175.762-.526.938-1.053.176-.526.147-.965-.088-1.404-.234-.439-.674-.731-1.26-.936-.381-.117-.733-.175-1.114-.117a1.946 1.946 0 0 0-.909.38c-.263.205-.44.468-.556.79a1.586 1.586 0 0 0-.03.907c.059.322.235.585.498.849.264.263.587.468 1.026.614.528.146 1.026.146 1.495-.03z"/>
        </g>
        <g fill="#FFF" fill-rule="nonzero" stroke="#FFF" stroke-width=".75">
            <path d="M44.259 131.82c-.41-.644-.616-1.317-.616-2.048a3.924 3.924 0 0 1 .557-2.165 4.253 4.253 0 0 1 1.524-1.609 3.914 3.914 0 0 1 2.081-.585c.733 0 1.466.176 2.198.585.528.293.968.644 1.32 1.053.351.41.586.878.732 1.375l-.527.147c-.264-.907-.85-1.58-1.759-2.077-.616-.322-1.231-.498-1.905-.498a3.61 3.61 0 0 0-1.817.498c-.557.321-.997.79-1.32 1.404-.322.614-.498 1.228-.468 1.872.029.644.205 1.229.557 1.785.351.555.82.994 1.436 1.316.908.497 1.817.614 2.726.351l.146.527a3.966 3.966 0 0 1-1.553.146c-.528-.059-1.085-.263-1.583-.527-.791-.41-1.348-.907-1.73-1.55zM57.184 135.594l-4.513-1.668-1.788 1.814-.616-.234 6.449-6.465.556.205.733 9.098-.615-.234-.206-2.516zm-.058-.556l-.41-5.237-3.664 3.745 4.074 1.492zM66.828 131.878l-.088.41-5.218 6.875-.644-.147 5.158-6.787-4.543-1.023-.352 1.55-.586-.117.47-2.077zM78.434 136.822h.587l-.059 3.101c-.381.351-.82.585-1.348.76a4.381 4.381 0 0 1-1.642.235 4.44 4.44 0 0 1-2.227-.585c-.645-.38-1.173-.878-1.524-1.521-.352-.644-.528-1.375-.528-2.165s.205-1.521.586-2.136c.381-.643.909-1.111 1.583-1.492a4.423 4.423 0 0 1 2.257-.497c.615 0 1.172.117 1.67.322.499.205.939.497 1.29.877l-.38.41c-.352-.351-.733-.614-1.144-.76a5.445 5.445 0 0 0-1.436-.264c-.703 0-1.348.146-1.935.439-.586.292-1.025.731-1.377 1.287a3.96 3.96 0 0 0-.528 1.843c0 .673.147 1.287.47 1.872.322.556.761.995 1.318 1.346a3.773 3.773 0 0 0 1.905.497c.938.03 1.73-.234 2.375-.731l.087-2.838zM90.98 139.338l-1.232-6.992-2.403 6.495-.293.058-4.426-5.295 1.202 6.963-.587.088-1.407-8.162.499-.088 4.748 5.675 2.58-6.933.498-.088 1.436 8.162zM100.593 132.434c.41.234.733.615.909 1.141.234.673.205 1.258-.147 1.785-.352.526-.996.965-1.964 1.316l-3.458 1.287-2.873-7.781 3.254-1.2c.85-.322 1.553-.38 2.169-.205.586.176 1.026.586 1.26 1.2.176.439.176.848.059 1.258-.118.38-.352.731-.704.994.586-.087 1.085-.029 1.495.205zm-6.77-1.96l1.143 3.101 2.667-.995c.674-.263 1.172-.585 1.436-.965.264-.41.322-.848.117-1.375-.176-.497-.498-.819-.967-.936-.469-.117-1.026-.058-1.73.176l-2.667.994zm6.975 4.68c.293-.409.323-.877.147-1.433-.205-.555-.557-.877-1.026-.994-.498-.117-1.114-.03-1.876.234l-2.902 1.082 1.202 3.218 2.902-1.082c.733-.264 1.26-.615 1.553-1.024zM107.364 123.453l4.133 7.167-.528.293-1.964-3.423-4.807 2.78 1.964 3.422-.528.293-4.132-7.168.527-.292 1.905 3.306 4.807-2.78-1.905-3.305z"/>
        </g>
        <g fill="#FFF" fill-rule="nonzero">
            <path d="M50.795 52.219V41.453h51.85v9.157l-28.431 62.02h-12.72L89.19 52.247"/>
            <g stroke="#FFF" stroke-width=".75">
                <path d="M54.4 65.237c-.967-.526-1.73-1.258-2.257-2.194-.557-.936-.82-1.99-.82-3.16 0-1.17.263-2.223.82-3.159a5.883 5.883 0 0 1 2.286-2.194c.968-.527 2.052-.79 3.254-.79.908 0 1.73.146 2.491.439a4.953 4.953 0 0 1 1.935 1.316l-.821.82c-.938-.966-2.14-1.434-3.576-1.434-.967 0-1.817.205-2.609.644-.79.438-1.406 1.024-1.846 1.784a5.004 5.004 0 0 0-.674 2.545c0 .936.234 1.785.674 2.545.44.761 1.055 1.346 1.846 1.785.792.439 1.642.644 2.61.644 1.465 0 2.637-.498 3.575-1.463l.82.819a4.953 4.953 0 0 1-1.934 1.316 6.984 6.984 0 0 1-2.491.468c-1.231.059-2.316-.204-3.283-.73zM72.133 62.692H65.39l-1.465 3.218h-1.32l5.54-12.082h1.26l5.54 12.082H73.57l-1.436-3.218zm-.47-1.024l-2.9-6.494-2.903 6.494h5.804z"/>
            </g>
        </g>
        <ellipse cx="76.471" cy="76.471" stroke="#FFF" stroke-width="3.517" rx="70.697" ry="70.561"/>
        <path stroke="#FFF" stroke-dasharray="3.517" stroke-width="1.172" d="M104.872 22.555c19.756 10.122 33.268 30.688 33.268 54.355 0 19.863-9.497 37.533-24.24 48.679M48.567 22.584c-19.696 10.122-33.18 30.659-33.18 54.296 0 19.864 9.497 37.534 24.24 48.68"/>
    </g>
</svg>
